<?xml version="1.0" encoding="utf-8"?>
<!-- Generator: Adobe Illustrator 23.0.2, SVG Export Plug-In . SVG Version: 6.00 Build 0)  -->
<svg version="1.1" id="Layer_1" xmlns="http://www.w3.org/2000/svg" xmlns:xlink="http://www.w3.org/1999/xlink" x="0px" y="0px"
	 viewBox="-169.638 -285.945 595.275 841.89" enable-background="new -169.638 -285.945 595.275 841.89" xml:space="preserve">
<g transform="translate(0.000000, -1.000000)">
	<path fill="#B3B3B3" d="M127.606,1.341L0.849,45.95L20.88,212.022l106.861,58.732l107.412-59.527L255.176,45.16L127.606,1.341z"/>
	<path fill="#A6120D" d="M242.531,54.758L127.31,15.466v241.257l96.561-53.441L242.531,54.758z"/>
	<path fill="#DD1B16" d="M15.073,55.466L32.238,203.99l95.071,52.732V15.461L15.073,55.466z"/>
	<path fill="#F2F2F2" d="M159.026,143.898l-31.716,14.83H93.881l-15.714,39.305l-29.228,0.541L127.31,24.227L159.026,143.898
		L159.026,143.898z M155.961,136.431L127.52,80.128l-23.328,55.334h23.117L155.961,136.431L155.961,136.431z"/>
	<path fill="#B3B3B3" d="M127.309,24.227l0.21,55.901l26.471,55.377h-26.621l-0.06,23.188l36.811,0.035l17.204,39.853l27.967,0.518
		L127.309,24.227z"/>
</g>
</svg>
